<svg t="1766745779894" class="icon" viewBox="0 0 1024 1024" version="1.1" xmlns="http://www.w3.org/2000/svg" p-id="2813" width="200" height="200"><path d="M152.9 422.74c-49.29 0-89.26 39.96-89.26 89.26s39.96 89.26 89.26 89.26c49.3 0 89.26-39.96 89.26-89.26s-39.96-89.26-89.26-89.26z" fill="#2c2c2c" p-id="2814"></path><path d="M512 512m-89.26 0a89.26 89.26 0 1 0 178.52 0 89.26 89.26 0 1 0-178.52 0Z" fill="#2c2c2c" p-id="2815"></path><path d="M871.1 512m-89.26 0a89.26 89.26 0 1 0 178.52 0 89.26 89.26 0 1 0-178.52 0Z" fill="#2c2c2c" p-id="2816"></path></svg>